<svg width="276" height="90" viewBox="0 0 276 90" fill="none" xmlns="http://www.w3.org/2000/svg">
<rect x="2.5" y="2.5" width="271" height="85" rx="42.5" fill="#725050"/>
<path d="M122.457 51.2363C122.359 51.4121 122.33 51.5781 122.369 51.7344C122.408 51.8906 122.428 52.0664 122.428 52.2617C122.428 52.3984 122.389 52.5059 122.311 52.584C122.252 52.6816 122.184 52.7891 122.105 52.9062C121.988 53.1797 121.881 53.3359 121.783 53.375C121.686 53.4336 121.588 53.4336 121.49 53.375C121.412 53.3359 121.324 53.2578 121.227 53.1406C121.129 53.043 121.021 52.9746 120.904 52.9355C120.807 52.8965 120.748 52.8477 120.729 52.7891C120.729 52.7305 120.729 52.6621 120.729 52.584C120.768 52.5254 120.777 52.4668 120.758 52.4082C120.738 52.3496 120.719 52.3008 120.699 52.2617C120.621 52.0273 120.562 51.8027 120.523 51.5879C120.504 51.373 120.445 51.1582 120.348 50.9434C120.25 50.6895 120.113 50.4551 119.938 50.2402C119.762 50.0254 119.596 49.8008 119.439 49.5664C119.244 49.2734 119.088 49.0391 118.971 48.8633C118.854 48.668 118.736 48.5117 118.619 48.3945C118.502 48.2578 118.355 48.1211 118.18 47.9844C118.023 47.8477 117.799 47.6719 117.506 47.457C117.467 47.418 117.418 47.3887 117.359 47.3691C117.32 47.3301 117.271 47.291 117.213 47.252L117.184 47.3105C116.91 47.6621 116.627 48.0234 116.334 48.3945C116.041 48.7461 115.719 49.0684 115.367 49.3613C115.172 49.5371 114.967 49.6934 114.752 49.8301C114.557 49.9473 114.352 50.084 114.137 50.2402C113.941 50.3965 113.795 50.5332 113.697 50.6504C113.6 50.7676 113.502 50.8848 113.404 51.002C113.307 51.0996 113.18 51.207 113.023 51.3242C112.887 51.4219 112.662 51.5293 112.35 51.6465C111.979 51.8027 111.715 51.9492 111.559 52.0859C111.402 52.2422 111.188 52.4082 110.914 52.584C110.836 52.623 110.768 52.6035 110.709 52.5254C110.631 52.5645 110.553 52.5938 110.475 52.6133C110.396 52.6328 110.318 52.6621 110.24 52.7012C110.182 52.7207 110.055 52.75 109.859 52.7891C109.684 52.8477 109.488 52.9062 109.273 52.9648C109.078 53.043 108.893 53.1211 108.717 53.1992C108.561 53.2773 108.482 53.3555 108.482 53.4336C108.404 53.5703 108.307 53.6289 108.189 53.6094C108.092 53.5898 108.043 53.502 108.043 53.3457L108.014 53.2871C107.779 53.4238 107.555 53.502 107.34 53.5215C107.145 53.541 106.92 53.4727 106.666 53.3164C106.119 53.4727 105.65 53.502 105.26 53.4043C104.889 53.3262 104.547 53.1699 104.234 52.9355C103.941 52.7207 103.668 52.4473 103.414 52.1152C103.141 51.8027 102.838 51.4805 102.506 51.1484C102.369 51.2266 102.262 51.2168 102.184 51.1191C102.184 51.041 102.203 50.9922 102.242 50.9727C102.262 50.9336 102.301 50.8945 102.359 50.8555C102.34 50.543 102.252 50.2402 102.096 49.9473C102.057 49.791 101.979 49.6543 101.861 49.5371C101.725 49.4199 101.637 49.293 101.598 49.1562C101.598 49.0781 101.637 49.0391 101.715 49.0391C101.715 48.8242 101.715 48.5801 101.715 48.3066C101.715 48.0137 101.764 47.7598 101.861 47.5449C101.9 47.4473 101.998 47.3984 102.154 47.3984L102.242 47.3691C102.281 47.3301 102.311 47.2715 102.33 47.1934C102.35 47.1152 102.379 47.0566 102.418 47.0176L102.359 46.9297V46.8125C102.457 46.6758 102.564 46.5879 102.682 46.5488C102.779 46.5098 102.877 46.4414 102.975 46.3438C102.838 46.3047 102.74 46.2461 102.682 46.168V46.0215C102.74 45.8848 102.828 45.8164 102.945 45.8164H102.975C102.994 45.8164 103.014 45.8066 103.033 45.7871C103.053 45.7871 103.072 45.7773 103.092 45.7578C103.326 45.543 103.561 45.3379 103.795 45.1426C104.01 44.9277 104.234 44.7129 104.469 44.498C105.055 44.0098 105.729 43.6484 106.49 43.4141C106.588 43.375 106.676 43.3457 106.754 43.3262C106.852 43.2871 106.949 43.248 107.047 43.209C107.32 43.0918 107.574 42.9844 107.809 42.8867C108.062 42.7695 108.326 42.6816 108.6 42.623C109.127 42.5059 109.674 42.4473 110.24 42.4473C110.338 42.4473 110.387 42.4961 110.387 42.5938C110.465 42.5547 110.514 42.5645 110.533 42.623C110.748 42.7598 110.963 42.8184 111.178 42.7988C111.412 42.7793 111.646 42.7598 111.881 42.7402C112.115 42.7012 112.34 42.6914 112.555 42.7109C112.789 42.7305 113.023 42.8379 113.258 43.0332C113.395 43.0137 113.561 43.0332 113.756 43.0918C113.951 43.1504 114.137 43.2188 114.312 43.2969C114.488 43.3555 114.645 43.4141 114.781 43.4727C114.918 43.5312 115.006 43.5508 115.045 43.5312C115.123 43.4922 115.191 43.4336 115.25 43.3555C115.309 43.2773 115.387 43.2676 115.484 43.3262C115.582 43.3848 115.621 43.4434 115.602 43.502C115.582 43.5605 115.572 43.6289 115.572 43.707L115.514 43.8242H115.543V43.8535C115.602 43.7754 115.719 43.7363 115.895 43.7363C116.09 43.7168 116.227 43.7168 116.305 43.7363C116.461 43.502 116.549 43.2578 116.568 43.0039C116.607 42.7305 116.676 42.4766 116.773 42.2422C116.871 41.9883 116.979 41.7441 117.096 41.5098C117.213 41.2559 117.301 40.9922 117.359 40.7188C117.457 40.2695 117.594 39.8105 117.77 39.3418C117.965 38.8535 118.199 38.4043 118.473 37.9941C118.316 37.8184 118.268 37.6035 118.326 37.3496C118.385 37.0762 118.463 36.8418 118.561 36.6465C118.6 36.5684 118.639 36.5 118.678 36.4414C118.717 36.3828 118.756 36.3145 118.795 36.2363C118.775 36.1973 118.746 36.1582 118.707 36.1191C118.668 36.0801 118.648 36.0312 118.648 35.9727C118.648 35.8359 118.658 35.7188 118.678 35.6211C118.717 35.5039 118.756 35.3965 118.795 35.2988C118.834 35.2012 118.844 35.0938 118.824 34.9766C118.824 34.8594 118.824 34.7324 118.824 34.5957C118.844 34.5762 118.854 34.5273 118.854 34.4492C118.775 34.4297 118.736 34.3613 118.736 34.2441C118.736 34.166 118.746 34.127 118.766 34.127C118.785 34.1074 118.814 34.0781 118.854 34.0391C119.029 33.8242 119.127 33.5703 119.146 33.2773C119.166 32.9844 119.176 32.7012 119.176 32.4277C119.078 32.2129 118.99 32.0566 118.912 31.959C118.854 31.8613 118.922 31.7148 119.117 31.5195C119.078 31.5195 119.029 31.4902 118.971 31.4316C118.932 31.373 118.902 31.334 118.883 31.3145H118.941C118.902 31.1582 118.883 31.041 118.883 30.9629C118.844 30.9238 118.785 30.8652 118.707 30.7871C118.648 30.709 118.668 30.6504 118.766 30.6113C118.766 30.3965 118.766 30.2891 118.766 30.2891C118.785 30.2695 118.863 30.1914 119 30.0547C119 29.9766 119 29.9082 119 29.8496C119 29.7715 118.98 29.6836 118.941 29.5859H118.912C118.834 29.6445 118.785 29.6836 118.766 29.7031C118.746 29.7031 118.707 29.6641 118.648 29.5859C118.648 29.5078 118.658 29.4688 118.678 29.4688C118.697 29.4688 118.736 29.4492 118.795 29.4102C118.756 29.3516 118.707 29.2734 118.648 29.1758C118.59 29.0781 118.531 28.9707 118.473 28.8535C118.414 28.7363 118.355 28.6289 118.297 28.5312C118.238 28.4141 118.209 28.3262 118.209 28.2676C118.17 27.9551 118.111 27.6426 118.033 27.3301C117.955 26.998 117.73 26.793 117.359 26.7148C117.281 26.7539 117.184 26.8027 117.066 26.8613C116.969 26.9004 116.891 26.8711 116.832 26.7734C116.773 26.6758 116.764 26.5879 116.803 26.5098C116.842 26.4121 116.891 26.3242 116.949 26.2461V26.2168C116.891 26.1777 116.881 26.0898 116.92 25.9531C116.803 26.0703 116.695 26.0996 116.598 26.041C116.559 26.1387 116.52 26.2266 116.48 26.3047C116.441 26.3828 116.393 26.4512 116.334 26.5098H116.275L116.363 26.5977V26.5391V26.5977C116.344 26.6562 116.305 26.7344 116.246 26.832C116.207 26.9102 116.139 26.998 116.041 27.0957C115.963 27.1738 115.875 27.2422 115.777 27.3008C115.68 27.3594 115.582 27.3691 115.484 27.3301C115.387 27.291 115.328 27.2422 115.309 27.1836C115.25 27.0859 115.26 26.959 115.338 26.8027C115.436 26.627 115.484 26.4902 115.484 26.3926C115.426 26.334 115.309 26.3242 115.133 26.3633C114.957 26.3828 114.82 26.3438 114.723 26.2461C114.469 26.4609 114.234 26.6953 114.02 26.9492C113.805 27.1836 113.561 27.3887 113.287 27.5645C113.111 27.6816 112.926 27.7891 112.73 27.8867C112.555 27.9648 112.379 28.0723 112.203 28.209C112.027 28.3457 111.871 28.4922 111.734 28.6484C111.598 28.8047 111.451 28.9609 111.295 29.1172C111.197 29.4297 111.041 29.7324 110.826 30.0254C110.631 30.3184 110.436 30.5918 110.24 30.8457C110.318 30.8457 110.377 30.8359 110.416 30.8164C110.475 30.8164 110.553 30.8164 110.65 30.8164C110.768 30.7969 110.875 30.7969 110.973 30.8164C111.07 30.8164 111.139 30.8457 111.178 30.9043C111.236 30.9629 111.236 31.0605 111.178 31.1973C111.041 31.4512 110.855 31.5781 110.621 31.5781C110.406 31.5781 110.191 31.6465 109.977 31.7832C109.508 32.0957 109.117 32.4668 108.805 32.8965C108.707 33.0332 108.629 33.1895 108.57 33.3652C108.512 33.5215 108.463 33.6777 108.424 33.834C108.307 34.1855 108.18 34.5371 108.043 34.8887C107.906 35.2207 107.789 35.5723 107.691 35.9434C107.633 36.2168 107.535 36.4805 107.398 36.7344C107.281 36.9688 107.203 37.2227 107.164 37.4961C107.164 37.5156 107.164 37.5352 107.164 37.5547C107.184 37.5742 107.193 37.5938 107.193 37.6133V37.7012C107.193 38.0137 107.281 38.3652 107.457 38.7559C107.633 39.1465 107.867 39.4199 108.16 39.5762C108.219 39.6152 108.297 39.625 108.395 39.6055C108.492 39.5859 108.58 39.6152 108.658 39.6934V39.6641C108.736 39.5078 108.805 39.4199 108.863 39.4004C108.941 39.3613 109.01 39.3613 109.068 39.4004C109.146 39.4199 109.215 39.4688 109.273 39.5469C109.352 39.625 109.42 39.7031 109.479 39.7812H109.508L109.537 39.8105C109.693 39.7715 109.811 39.7227 109.889 39.6641C109.967 39.5859 110.084 39.5469 110.24 39.5469C110.494 39.293 110.768 39.0488 111.061 38.8145C111.373 38.5605 111.676 38.3066 111.969 38.0527C112.281 37.7988 112.564 37.5352 112.818 37.2617C113.092 36.9883 113.326 36.6953 113.521 36.3828C113.678 36.1094 113.795 35.8652 113.873 35.6504C113.971 35.416 114.049 35.1523 114.107 34.8594C114.146 34.7812 114.195 34.7422 114.254 34.7422L114.283 34.7129C114.42 34.5371 114.557 34.3711 114.693 34.2148C114.83 34.0391 115.006 33.9219 115.221 33.8633C115.338 33.8438 115.445 33.8047 115.543 33.7461C115.621 33.707 115.729 33.6973 115.865 33.7168C116.021 33.7363 116.1 33.8047 116.1 33.9219L116.129 33.9805C116.246 34.0781 116.354 34.1953 116.451 34.332C116.568 34.4492 116.627 34.5957 116.627 34.7715C116.627 34.8301 116.607 34.8789 116.568 34.918C116.529 34.9375 116.49 34.9668 116.451 35.0059C116.49 35.0449 116.539 35.0938 116.598 35.1523C116.676 35.2109 116.666 35.2793 116.568 35.3574C116.568 35.3965 116.529 35.4551 116.451 35.5332C116.432 35.5723 116.412 35.6113 116.393 35.6504C116.393 35.6699 116.383 35.6992 116.363 35.7383C116.363 35.7578 116.344 35.8262 116.305 35.9434C116.305 36.2363 116.246 36.5195 116.129 36.793C116.031 37.0469 115.904 37.3105 115.748 37.584C115.689 37.7012 115.611 37.7793 115.514 37.8184C115.436 37.8379 115.377 37.8965 115.338 37.9941L115.309 38.0234L115.338 38.0527C115.338 38.0918 115.26 38.209 115.104 38.4043C114.947 38.5801 114.85 38.6973 114.811 38.7559C114.537 39.1074 114.273 39.3906 114.02 39.6055C113.766 39.8008 113.453 40.0352 113.082 40.3086C112.535 40.7188 111.949 41.0508 111.324 41.3047C110.719 41.5586 110.074 41.7246 109.391 41.8027C109.117 42.0176 108.824 42.0859 108.512 42.0078C108.219 41.9297 107.936 41.832 107.662 41.7148C107.389 41.5977 107.115 41.5488 106.842 41.5684C106.764 41.5879 106.715 41.5879 106.695 41.5684C106.676 41.5293 106.646 41.4902 106.607 41.4512C106.568 41.4512 106.51 41.4316 106.432 41.3926C106.217 41.2559 106.002 41.0605 105.787 40.8066C105.592 40.5527 105.406 40.2793 105.23 39.9863C105.055 39.6934 104.908 39.4004 104.791 39.1074C104.693 38.7949 104.645 38.5117 104.645 38.2578C104.547 38.2188 104.508 38.1699 104.527 38.1113C104.547 38.0527 104.605 38.0234 104.703 38.0234C104.762 37.8477 104.781 37.6426 104.762 37.4082C104.762 37.1738 104.801 36.9395 104.879 36.7051C104.938 36.5293 105.035 36.3242 105.172 36.0898C105.328 35.8359 105.455 35.6113 105.553 35.416C105.65 35.2012 105.748 34.9863 105.846 34.7715C105.963 34.5566 106.07 34.3418 106.168 34.127C106.266 33.9121 106.344 33.6875 106.402 33.4531C106.48 33.2188 106.568 32.9941 106.666 32.7793C106.764 32.584 106.861 32.3789 106.959 32.1641C107.076 31.9492 107.184 31.7344 107.281 31.5195C107.242 31.4609 107.232 31.4121 107.252 31.373C107.291 31.3145 107.359 31.3047 107.457 31.3438C107.594 31.0312 107.76 30.748 107.955 30.4941C108.15 30.2207 108.326 29.9473 108.482 29.6738C108.541 29.5371 108.6 29.4102 108.658 29.293C108.717 29.1562 108.795 29.0391 108.893 28.9414C109.049 28.7461 109.244 28.5898 109.479 28.4727C109.713 28.3555 109.908 28.1992 110.064 28.0039C110.221 27.7891 110.377 27.5742 110.533 27.3594C110.689 27.1445 110.855 26.9297 111.031 26.7148C111.09 26.5781 111.188 26.5 111.324 26.4805C111.383 26.5 111.422 26.5391 111.441 26.5977C111.578 26.4414 111.715 26.3047 111.852 26.1875C112.008 26.0703 112.184 25.9531 112.379 25.8359C112.574 25.7188 112.74 25.5723 112.877 25.3965C113.033 25.2012 113.219 25.0547 113.434 24.957C113.551 24.8984 113.678 24.8301 113.814 24.752C113.951 24.6738 114.068 24.5859 114.166 24.4883C114.244 24.4492 114.312 24.4297 114.371 24.4297C114.645 24.4492 114.889 24.4199 115.104 24.3418C115.338 24.2637 115.572 24.1953 115.807 24.1367C116.041 24.0586 116.285 24.0293 116.539 24.0488C116.812 24.0488 117.125 24.1367 117.477 24.3125C117.516 24.2539 117.545 24.1855 117.564 24.1074C117.584 24.0293 117.652 24 117.77 24.0195C117.867 24.0391 117.916 24.0879 117.916 24.166C117.916 24.2246 117.936 24.293 117.975 24.3711C118.209 24.5273 118.434 24.6738 118.648 24.8105C118.863 24.9277 119.049 25.084 119.205 25.2793C119.498 25.6309 119.732 25.9727 119.908 26.3047C120.084 26.6367 120.24 26.9688 120.377 27.3008C120.514 27.6328 120.65 27.9746 120.787 28.3262C120.924 28.6582 121.09 29.0098 121.285 29.3809C121.285 29.459 121.275 29.5078 121.256 29.5273C121.256 29.5469 121.227 29.5859 121.168 29.6445H121.197C121.275 29.7227 121.314 29.7812 121.314 29.8203C121.256 29.9375 121.188 30.0645 121.109 30.2012C121.051 30.3379 121.021 30.4746 121.021 30.6113C121.021 30.9434 121.07 31.2559 121.168 31.5488C121.266 31.8418 121.354 32.1348 121.432 32.4277C121.51 32.7207 121.549 33.0137 121.549 33.3066C121.549 33.5996 121.451 33.9219 121.256 34.2734C121.393 34.5859 121.441 34.8301 121.402 35.0059C121.383 35.1621 121.324 35.2988 121.227 35.416C121.148 35.5332 121.061 35.6504 120.963 35.7676C120.865 35.8848 120.816 36.0508 120.816 36.2656C120.816 36.3047 120.816 36.3438 120.816 36.3828C120.836 36.4219 120.846 36.4609 120.846 36.5C120.846 36.5977 120.846 36.6855 120.846 36.7637C120.865 36.8418 120.914 36.9297 120.992 37.0273C120.934 37.125 120.885 37.1836 120.846 37.2031H120.816C120.777 37.418 120.719 37.623 120.641 37.8184C120.562 38.0137 120.494 38.2188 120.436 38.4336C120.279 38.9609 120.123 39.498 119.967 40.0449C119.83 40.5723 119.654 41.0898 119.439 41.5977C119.342 41.8711 119.254 42.1445 119.176 42.418C119.117 42.6914 119.02 42.9551 118.883 43.209C118.883 43.2871 118.854 43.3555 118.795 43.4141L118.766 43.4727C118.766 43.6094 118.756 43.7852 118.736 44C118.717 44.1953 118.658 44.3418 118.561 44.4395C118.502 44.498 118.463 44.5371 118.443 44.5566C118.443 44.5762 118.443 44.6348 118.443 44.7324C118.482 44.7715 118.502 44.8105 118.502 44.8496C118.521 44.8887 118.551 44.9277 118.59 44.9668C118.688 45.123 118.775 45.25 118.854 45.3477C118.932 45.4453 119.029 45.5527 119.146 45.6699C119.342 45.8848 119.547 46.0703 119.762 46.2266C119.977 46.3633 120.172 46.5391 120.348 46.7539C120.523 46.9688 120.67 47.1934 120.787 47.4277C120.924 47.6426 121.07 47.8574 121.227 48.0723C121.383 48.2871 121.48 48.5215 121.52 48.7754C121.578 49.0098 121.666 49.2344 121.783 49.4492C121.9 49.6836 122.018 49.918 122.135 50.1523C122.252 50.3867 122.34 50.6406 122.398 50.9141L122.428 50.9434L122.457 51.0312L122.428 51.0605C122.447 51.0996 122.457 51.1582 122.457 51.2363ZM114.693 46.3145C114.615 46.2168 114.547 46.1289 114.488 46.0508C114.43 45.9727 114.381 45.8848 114.342 45.7871V45.7578C114.127 45.7383 113.912 45.6797 113.697 45.582C113.502 45.4844 113.316 45.377 113.141 45.2598C113.082 45.2207 113.023 45.1719 112.965 45.1133C112.906 45.0352 112.838 44.9766 112.76 44.9375C112.525 44.8984 112.291 44.8984 112.057 44.9375C111.822 44.957 111.588 44.957 111.354 44.9375C111.1 44.918 110.855 44.8887 110.621 44.8496C110.406 44.8105 110.182 44.8105 109.947 44.8496C109.791 44.8496 109.586 44.8984 109.332 44.9961C109.098 45.0742 108.854 45.1719 108.6 45.2891C108.365 45.4062 108.141 45.5332 107.926 45.6699C107.711 45.8066 107.555 45.9336 107.457 46.0508C107.418 46.0898 107.389 46.1191 107.369 46.1387C107.369 46.1582 107.34 46.1777 107.281 46.1973C107.242 46.2168 107.174 46.2266 107.076 46.2266C107.037 46.1875 106.988 46.168 106.93 46.168C106.891 46.168 106.852 46.1582 106.812 46.1387L106.666 46.168C106.549 46.207 106.461 46.2266 106.402 46.2266C106.344 46.2266 106.256 46.2266 106.139 46.2266C106.041 46.4414 105.934 46.666 105.816 46.9004C105.719 47.1152 105.592 47.3203 105.436 47.5156C105.221 47.7695 105.006 48.0332 104.791 48.3066C104.596 48.5801 104.498 48.8828 104.498 49.2148C104.498 49.2734 104.547 49.3809 104.645 49.5371C104.742 49.6738 104.811 49.7812 104.85 49.8594C104.947 50.1328 105.055 50.3281 105.172 50.4453C105.309 50.543 105.455 50.6113 105.611 50.6504C105.768 50.6895 105.934 50.709 106.109 50.709C106.305 50.709 106.51 50.7285 106.725 50.7676C106.881 50.8066 107.086 50.875 107.34 50.9727C107.613 51.0703 107.799 51.1289 107.896 51.1484C108.111 51.0508 108.316 50.9727 108.512 50.9141C108.727 50.8555 108.941 50.8066 109.156 50.7676C109.254 50.748 109.352 50.709 109.449 50.6504C109.547 50.5723 109.645 50.5137 109.742 50.4746C109.898 50.4355 110.055 50.3965 110.211 50.3574C110.387 50.3184 110.543 50.25 110.68 50.1523C110.914 49.9961 111.129 49.8594 111.324 49.7422C111.52 49.625 111.754 49.5469 112.027 49.5078C112.223 49.1367 112.447 48.8535 112.701 48.6582L112.613 48.5996C112.613 48.4629 112.691 48.3652 112.848 48.3066C113.004 48.248 113.131 48.1992 113.229 48.1602C113.404 48.1016 113.531 47.9941 113.609 47.8379C113.688 47.6816 113.756 47.5254 113.814 47.3691C113.873 47.2129 113.932 47.0762 113.99 46.959C114.049 46.8223 114.127 46.7539 114.225 46.7539L114.283 46.6953H114.312C114.352 46.6562 114.381 46.6367 114.4 46.6367C114.42 46.6367 114.449 46.627 114.488 46.6074C114.527 46.6074 114.586 46.5879 114.664 46.5488C114.664 46.5098 114.654 46.4707 114.635 46.4316C114.635 46.3926 114.654 46.3535 114.693 46.3145ZM145.074 50.0352C144.84 50.0352 144.654 50.0449 144.518 50.0645C144.4 50.0645 144.293 50.0742 144.195 50.0938C144.098 50.1133 143.99 50.1523 143.873 50.2109C143.756 50.2695 143.6 50.3574 143.404 50.4746C143.326 50.6895 143.219 50.8555 143.082 50.9727C142.965 51.0703 142.818 51.1582 142.643 51.2363C142.486 51.2949 142.32 51.3633 142.145 51.4414C141.969 51.5 141.803 51.6074 141.646 51.7637C140.162 51.998 138.854 51.666 137.721 50.7676C137.584 50.6699 137.457 50.5625 137.34 50.4453C137.242 50.3281 137.125 50.2207 136.988 50.123C136.891 50.0449 136.832 50.0156 136.812 50.0352C136.812 50.0352 136.773 49.9863 136.695 49.8887C136.559 49.6934 136.471 49.459 136.432 49.1855C136.412 48.8926 136.373 48.6191 136.314 48.3652C136.256 48.0918 136.139 47.8672 135.963 47.6914C135.807 47.4961 135.523 47.4082 135.113 47.4277C134.918 47.8379 134.635 48.2578 134.264 48.6875C133.912 49.0977 133.512 49.4688 133.062 49.8008C132.613 50.1328 132.135 50.4062 131.627 50.6211C131.139 50.8359 130.67 50.9434 130.221 50.9434C130.064 51.3926 129.791 51.7246 129.4 51.9395C129.029 52.1738 128.629 52.3496 128.199 52.4668C128.16 52.4863 128.082 52.5059 127.965 52.5254C127.848 52.5645 127.779 52.584 127.76 52.584C127.486 52.6035 127.271 52.5547 127.115 52.4375C126.959 52.3203 126.812 52.1934 126.676 52.0566C126.539 51.9199 126.393 51.793 126.236 51.6758C126.08 51.5586 125.865 51.5 125.592 51.5C125.377 50.9922 125.162 50.4941 124.947 50.0059C124.732 49.5176 124.576 49.0195 124.479 48.5117C124.654 48.4141 124.752 48.2969 124.771 48.1602C124.771 48.0039 124.771 47.8477 124.771 47.6914C124.459 47.5938 124.303 47.4766 124.303 47.3398C124.283 47.1836 124.312 47.0273 124.391 46.8711C124.449 46.7148 124.518 46.5684 124.596 46.4316C124.654 46.2754 124.615 46.1484 124.479 46.0508C124.635 44.8594 124.977 43.707 125.504 42.5938C126.031 41.4805 126.783 40.5527 127.76 39.8105C127.643 39.4395 127.672 39.1562 127.848 38.9609C128.043 38.7656 128.268 38.6582 128.521 38.6387C128.795 38.6191 129.049 38.6875 129.283 38.8438C129.537 38.9805 129.664 39.2051 129.664 39.5176C129.684 39.6543 129.674 39.791 129.635 39.9277C129.596 40.0645 129.557 40.1914 129.518 40.3086C129.4 40.8945 129.225 41.4609 128.99 42.0078C128.756 42.5547 128.502 43.0918 128.229 43.6191C127.955 44.1465 127.672 44.6738 127.379 45.2012C127.105 45.7285 126.871 46.2754 126.676 46.8418C126.441 46.998 126.363 47.1641 126.441 47.3398C126.52 47.5156 126.617 47.6914 126.734 47.8672C126.871 48.0234 126.939 48.1797 126.939 48.3359C126.959 48.4922 126.783 48.6387 126.412 48.7754C126.295 49.0488 126.324 49.293 126.5 49.5078C126.676 49.7031 126.822 49.9082 126.939 50.123C127.096 50.1426 127.242 50.1426 127.379 50.123C127.535 50.1035 127.662 50.0156 127.76 49.8594C127.994 50.0156 128.199 50.0449 128.375 49.9473C128.57 49.8496 128.766 49.7324 128.961 49.5957C129.176 49.4395 129.4 49.3125 129.635 49.2148C129.889 49.1172 130.172 49.1465 130.484 49.3027C130.621 49.166 130.729 49 130.807 48.8047C130.904 48.6094 131.002 48.4238 131.1 48.248C131.197 48.0723 131.314 47.9258 131.451 47.8086C131.607 47.6914 131.822 47.6523 132.096 47.6914C132.369 47.2031 132.73 46.8027 133.18 46.4902C133.629 46.1582 134.078 45.8457 134.527 45.5527C134.996 45.2598 135.406 44.9473 135.758 44.6152C136.129 44.2832 136.363 43.8535 136.461 43.3262C136.832 42.7402 137.203 42.0859 137.574 41.3633C137.965 40.6211 138.414 40.0059 138.922 39.5176C138.98 39.3613 139.078 39.2441 139.215 39.166C139.352 39.0684 139.498 39.0098 139.654 38.9902C139.811 38.9512 139.967 38.9609 140.123 39.0195C140.279 39.0586 140.416 39.1367 140.533 39.2539C140.572 39.6055 140.523 39.9277 140.387 40.2207C140.27 40.5137 140.133 40.8066 139.977 41.0996C139.84 41.373 139.732 41.666 139.654 41.9785C139.576 42.291 139.605 42.6523 139.742 43.0625C139.469 43.2188 139.195 43.3555 138.922 43.4727C138.668 43.5898 138.424 43.7168 138.189 43.8535C137.975 43.9902 137.779 44.166 137.604 44.3809C137.447 44.5957 137.34 44.8789 137.281 45.2305C137.809 45.4258 138.121 45.6699 138.219 45.9629C138.316 46.2559 138.365 46.5781 138.365 46.9297C138.365 47.2617 138.385 47.6133 138.424 47.9844C138.482 48.3359 138.736 48.6875 139.186 49.0391C139.264 49.0977 139.312 49.1465 139.332 49.1855C139.371 49.2051 139.439 49.2344 139.537 49.2734C139.732 49.332 139.908 49.332 140.064 49.2734C140.221 49.1953 140.367 49.127 140.504 49.0684C140.66 49.0098 140.816 48.9902 140.973 49.0098C141.148 49.0098 141.344 49.127 141.559 49.3613C141.852 48.9902 142.125 48.9902 142.379 49.3613C142.613 48.9316 142.828 48.6875 143.023 48.6289C143.219 48.5703 143.404 48.5508 143.58 48.5703C143.775 48.5898 143.971 48.5703 144.166 48.5117C144.361 48.4531 144.576 48.209 144.811 47.7793L145.074 48.043C145.191 47.7305 145.328 47.584 145.484 47.6035C145.66 47.6035 145.826 47.6328 145.982 47.6914C146.139 47.7305 146.275 47.7305 146.393 47.6914C146.51 47.6328 146.568 47.3984 146.568 46.9883C146.744 46.9883 146.891 46.9492 147.008 46.8711C147.145 46.793 147.271 46.7051 147.389 46.6074C147.525 46.5098 147.672 46.4316 147.828 46.373C147.984 46.2949 148.17 46.2559 148.385 46.2559L147.623 48.1016L145.074 50.0352ZM154.039 33.2188C153.688 33.3555 153.492 33.5605 153.453 33.834C153.414 34.1074 153.395 34.3906 153.395 34.6836C153.414 34.9766 153.404 35.25 153.365 35.5039C153.326 35.7578 153.131 35.9238 152.779 36.002C152.643 35.7676 152.467 35.5527 152.252 35.3574C152.057 35.1426 151.861 34.9375 151.666 34.7422C151.471 34.5273 151.314 34.3027 151.197 34.0684C151.08 33.834 151.041 33.5508 151.08 33.2188L152.545 31.5195C152.779 31.5977 152.965 31.6953 153.102 31.8125C153.238 31.9297 153.355 32.0664 153.453 32.2227C153.551 32.3789 153.639 32.5449 153.717 32.7207C153.814 32.877 153.922 33.043 154.039 33.2188ZM159.723 46.3438C159.742 46.7734 159.703 47.0762 159.605 47.252C159.527 47.4277 159.43 47.5742 159.312 47.6914C159.195 47.7891 159.088 47.9062 158.99 48.043C158.912 48.1602 158.873 48.375 158.873 48.6875C158.424 49.1758 158.062 49.5371 157.789 49.7715C157.516 49.9863 157.252 50.1719 156.998 50.3281C156.744 50.4648 156.461 50.6211 156.148 50.7969C155.836 50.9727 155.406 51.2461 154.859 51.6172L154.654 51.6465C154.596 51.9395 154.488 52.1055 154.332 52.1445C154.195 52.2031 154.029 52.2324 153.834 52.2324C153.658 52.2324 153.482 52.252 153.307 52.291C153.131 52.3301 152.984 52.4961 152.867 52.7891C152.535 52.8867 152.252 52.9258 152.018 52.9062C151.783 52.8867 151.48 52.877 151.109 52.877C150.992 52.877 150.836 52.8672 150.641 52.8477C150.465 52.8281 150.318 52.8379 150.201 52.877C150.123 52.8965 150.035 52.9453 149.938 53.0234C149.859 53.1211 149.771 53.1992 149.674 53.2578C149.576 53.3164 149.479 53.3359 149.381 53.3164C149.283 53.3164 149.195 53.2383 149.117 53.082C148.883 53.1406 148.668 53.1406 148.473 53.082C148.277 53.0234 148.092 52.9258 147.916 52.7891C147.74 52.6523 147.574 52.4863 147.418 52.291C147.281 52.1152 147.145 51.9492 147.008 51.793C146.91 51.6758 146.803 51.5684 146.686 51.4707C146.568 51.373 146.461 51.2754 146.363 51.1777C146.148 50.9629 145.992 50.6895 145.895 50.3574C145.797 50.0254 145.738 49.6836 145.719 49.332C145.699 48.9805 145.709 48.6289 145.748 48.2773C145.787 47.9258 145.846 47.6133 145.924 47.3398C146.1 47.1641 146.227 46.9688 146.305 46.7539C146.363 46.5195 146.412 46.2852 146.451 46.0508C146.51 45.8164 146.568 45.5918 146.627 45.377C146.705 45.1426 146.832 44.9375 147.008 44.7617C147.008 44.5078 147.047 44.2734 147.125 44.0586C147.223 43.8438 147.34 43.6387 147.477 43.4434C147.633 43.248 147.799 43.0723 147.975 42.916C148.17 42.7402 148.346 42.5742 148.502 42.418C148.658 42.418 148.814 42.418 148.971 42.418C149.127 42.3984 149.273 42.4082 149.41 42.4473C149.547 42.4668 149.664 42.5254 149.762 42.623C149.859 42.7012 149.938 42.8379 149.996 43.0332C150.133 43.5605 150.094 43.9902 149.879 44.3223C149.684 44.6348 149.459 44.9375 149.205 45.2305C148.951 45.5234 148.746 45.8262 148.59 46.1387C148.434 46.4512 148.473 46.8516 148.707 47.3398C148.492 47.3398 148.346 47.3984 148.268 47.5156C148.209 47.6328 148.16 47.7695 148.121 47.9258C148.102 48.0625 148.062 48.1992 148.004 48.3359C147.945 48.4727 147.828 48.5703 147.652 48.6289C147.77 48.7461 147.828 48.9512 147.828 49.2441C147.848 49.5371 147.877 49.8203 147.916 50.0938C147.975 50.3477 148.062 50.5527 148.18 50.709C148.316 50.8652 148.561 50.875 148.912 50.7383C149.166 50.9531 149.469 51.041 149.82 51.002C150.191 50.9629 150.533 50.9531 150.846 50.9727C151.119 50.7969 151.354 50.709 151.549 50.709C151.744 50.6895 151.93 50.709 152.105 50.7676C152.281 50.8066 152.467 50.8457 152.662 50.8848C152.857 50.9238 153.092 50.8945 153.365 50.7969C153.443 50.4648 153.58 50.2695 153.775 50.2109C153.971 50.1523 154.166 50.123 154.361 50.123C154.557 50.1035 154.732 50.0645 154.889 50.0059C155.064 49.9473 155.182 49.752 155.24 49.4199C155.396 49.2246 155.582 49.1172 155.797 49.0977C156.012 49.0586 156.227 49.0195 156.441 48.9805C156.676 48.9414 156.881 48.8633 157.057 48.7461C157.252 48.6094 157.389 48.3555 157.467 47.9844C157.799 47.7305 158.033 47.5449 158.17 47.4277C158.326 47.291 158.453 47.1836 158.551 47.1055C158.648 47.0273 158.775 46.9395 158.932 46.8418C159.088 46.7441 159.352 46.5781 159.723 46.3438ZM178.443 30.3184C178.17 30.6113 177.867 30.7676 177.535 30.7871C177.203 30.7871 176.871 30.7578 176.539 30.6992C176.227 30.6406 175.914 30.6211 175.602 30.6406C175.309 30.6406 175.055 30.7969 174.84 31.1094C174.527 31.0312 174.205 31.0215 173.873 31.0801C173.541 31.1191 173.199 31.1875 172.848 31.2852C172.496 31.3633 172.145 31.4414 171.793 31.5195C171.441 31.5977 171.09 31.627 170.738 31.6074L170.24 31.1094C170.104 31.3242 169.908 31.4609 169.654 31.5195C169.42 31.5586 169.186 31.5 168.951 31.3438C168.541 31.6172 168.131 31.7441 167.721 31.7246C167.311 31.7051 166.91 31.6953 166.52 31.6953C166.129 31.6758 165.758 31.7539 165.406 31.9297C165.074 32.0859 164.791 32.4863 164.557 33.1309C164.381 33.5801 164.215 34.0391 164.059 34.5078C163.902 34.957 163.746 35.4062 163.59 35.8555C163.16 37.0273 162.721 38.1895 162.271 39.3418C161.842 40.4746 161.354 41.5977 160.807 42.7109C160.768 43.5898 160.787 44.4785 160.865 45.377C160.943 46.2754 161.031 47.1641 161.129 48.043C161.051 48.2773 161.021 48.5215 161.041 48.7754C161.08 49.0293 161.148 49.2832 161.246 49.5371C161.344 49.791 161.461 50.0352 161.598 50.2695C161.734 50.4844 161.881 50.6797 162.037 50.8555L162.564 50.3574L163.297 51.3828C163.492 51.1289 163.717 50.8652 163.971 50.5918C164.244 50.2988 164.527 50.0352 164.82 49.8008C165.113 49.5469 165.416 49.3418 165.729 49.1855C166.061 49.0098 166.393 48.8926 166.725 48.834C166.861 48.6973 166.988 48.5508 167.105 48.3945C167.223 48.2383 167.35 48.1113 167.486 48.0137C167.623 47.8965 167.77 47.8184 167.926 47.7793C168.102 47.7207 168.307 47.7305 168.541 47.8086C169.166 47.457 169.723 47.0176 170.211 46.4902C170.699 45.9434 171.188 45.4062 171.676 44.8789C172.164 44.332 172.672 43.834 173.199 43.3848C173.746 42.9355 174.381 42.623 175.104 42.4473C174.635 43.5801 174.039 44.6836 173.316 45.7578C172.594 46.8125 171.783 47.7598 170.885 48.5996C170.65 48.873 170.357 49.1172 170.006 49.332C169.85 49.4297 169.684 49.5371 169.508 49.6543C169.332 49.752 169.166 49.8496 169.01 49.9473C168.482 50.2988 167.975 50.6797 167.486 51.0898C166.998 51.4805 166.529 51.9199 166.08 52.4082C166.021 52.291 165.943 52.2129 165.846 52.1738C165.748 52.1348 165.631 52.1152 165.494 52.1152C165.377 52.1152 165.25 52.125 165.113 52.1445C164.996 52.1641 164.889 52.1641 164.791 52.1445C164.42 52.418 163.932 52.6328 163.326 52.7891C162.74 52.9648 162.213 53.0039 161.744 52.9062C161.607 52.8672 161.422 52.7891 161.188 52.6719C160.953 52.5742 160.777 52.4863 160.66 52.4082C159.898 51.9004 159.322 51.2754 158.932 50.5332C158.561 49.7715 158.355 48.9414 158.316 48.043L158.082 47.8086C158.336 47.5742 158.492 47.3398 158.551 47.1055C158.629 46.8711 158.648 46.6367 158.609 46.4023C158.59 46.1484 158.541 45.8945 158.463 45.6406C158.404 45.3672 158.365 45.0938 158.346 44.8203C158.326 44.6445 158.326 44.498 158.346 44.3809C158.385 44.2637 158.424 44.127 158.463 43.9707C158.619 43.3457 158.766 42.7402 158.902 42.1543C159.039 41.5488 159.186 40.9434 159.342 40.3379C159.732 38.8535 160.182 37.3887 160.689 35.9434C161.217 34.4785 161.764 33.0332 162.33 31.6074C162.018 31.4902 161.705 31.4219 161.393 31.4023C161.08 31.3633 160.758 31.3438 160.426 31.3438C160.113 31.3438 159.791 31.334 159.459 31.3145C159.146 31.2949 158.834 31.2266 158.521 31.1094C158.385 31.0508 158.316 31.0215 158.316 31.0215C158.316 31.002 158.238 30.9922 158.082 30.9922C157.984 30.9922 157.848 31.0117 157.672 31.0508C157.496 31.0703 157.32 31.0801 157.145 31.0801C156.969 31.0801 156.812 31.0605 156.676 31.0215C156.52 30.9824 156.432 30.8945 156.412 30.7578V30.4648C156.432 30.1523 156.5 29.9473 156.617 29.8496C156.734 29.7324 156.881 29.6641 157.057 29.6445C157.232 29.6055 157.428 29.5859 157.643 29.5859C157.857 29.5664 158.062 29.498 158.258 29.3809C158.805 29.498 159.322 29.5859 159.811 29.6445C160.299 29.6836 160.768 29.6738 161.217 29.6152C161.686 29.5566 162.135 29.4297 162.564 29.2344C163.014 29.0391 163.453 28.7461 163.883 28.3555C164.195 27.75 164.43 27.1055 164.586 26.4219C164.742 25.7188 164.918 25.0352 165.113 24.3711C165.328 23.6875 165.602 23.0625 165.934 22.4961C166.266 21.9102 166.773 21.4219 167.457 21.0312C167.77 20.9922 168.043 21.0312 168.277 21.1484C168.512 21.2656 168.746 21.3926 168.98 21.5293C168.883 21.8027 168.805 22.0859 168.746 22.3789C168.688 22.6719 168.619 22.9648 168.541 23.2578C168.482 23.5508 168.404 23.834 168.307 24.1074C168.209 24.3809 168.062 24.6348 167.867 24.8691C168.121 24.9668 168.268 25.084 168.307 25.2207C168.346 25.3574 168.326 25.5039 168.248 25.6602C168.17 25.8164 168.072 25.9824 167.955 26.1582C167.838 26.334 167.77 26.4902 167.75 26.627C167.535 26.6465 167.35 26.7832 167.193 27.0371C167.057 27.291 166.91 27.4863 166.754 27.623C166.598 27.9551 166.627 28.2383 166.842 28.4727C167.057 28.707 167.252 28.9316 167.428 29.1465C167.604 29.2051 167.779 29.2148 167.955 29.1758C168.131 29.1172 168.287 29.0586 168.424 29C168.58 28.9414 168.727 28.9121 168.863 28.9121C169 28.9121 169.127 28.9902 169.244 29.1465C169.439 28.9316 169.635 28.8438 169.83 28.8828C170.025 28.9023 170.221 28.9512 170.416 29.0293C170.611 29.0879 170.807 29.1172 171.002 29.1172C171.197 29.0977 171.383 28.9414 171.559 28.6484C171.793 28.5312 172.008 28.502 172.203 28.5605C172.418 28.6191 172.613 28.6973 172.789 28.7949C172.965 28.873 173.131 28.9414 173.287 29C173.463 29.0391 173.639 29 173.814 28.8828C174.107 28.9219 174.43 28.9316 174.781 28.9121C175.152 28.8926 175.514 28.8535 175.865 28.7949C176.236 28.7363 176.598 28.668 176.949 28.5898C177.32 28.4922 177.652 28.4141 177.945 28.3555C178.238 28.5312 178.414 28.6875 178.473 28.8242C178.531 28.9609 178.541 29.0977 178.502 29.2344C178.482 29.3711 178.443 29.5273 178.385 29.7031C178.346 29.8594 178.365 30.0645 178.443 30.3184Z" fill="white"/>
<rect x="2.5" y="2.5" width="271" height="85" rx="42.5" stroke="#CECECE" stroke-width="5"/>
</svg>
